<svg width="20" height="32" viewBox="0 0 20 32" fill="none" xmlns="http://www.w3.org/2000/svg">
<path d="M8 28C8 30.2 6.2 32 4 32C1.8 32 0 30.2 0 28C0 25.8 1.8 24 4 24C6.2 24 8 25.8 8 28ZM4 12C1.8 12 0 13.8 0 16C0 18.2 1.8 20 4 20C6.2 20 8 18.2 8 16C8 13.8 6.2 12 4 12ZM4 0C1.8 0 0 1.8 0 4C0 6.2 1.8 8 4 8C6.2 8 8 6.2 8 4C8 1.8 6.2 0 4 0ZM16 8C18.2 8 20 6.2 20 4C20 1.8 18.2 0 16 0C13.8 0 12 1.8 12 4C12 6.2 13.8 8 16 8ZM16 12C13.8 12 12 13.8 12 16C12 18.2 13.8 20 16 20C18.2 20 20 18.2 20 16C20 13.8 18.2 12 16 12ZM16 24C13.8 24 12 25.8 12 28C12 30.2 13.8 32 16 32C18.2 32 20 30.2 20 28C20 25.8 18.2 24 16 24Z" fill="url(#paint0_linear_10_44)"/>
<defs>
<linearGradient id="paint0_linear_10_44" x1="26" y1="16" x2="6.29058e-07" y2="16" gradientUnits="userSpaceOnUse">
<stop/>
<stop offset="1" stop-opacity="0"/>
</linearGradient>
</defs>
</svg>
