<svg width="18" height="34" viewBox="0 0 48 84" fill="none" xmlns="http://www.w3.org/2000/svg">
  <path d="M34 23.68L28 19.08V11.52V9.6C28 8.56 28.88 7.68 30 7.68C31.12 7.68 32 8.52 32 9.6V12H40V9.6C40 4.28 35.52 0 30 0C24.48 0 20 4.28 20 9.6V11.52V19.08L14 23.68L0 20.28L20.2 81.28C20.8 83.08 22.4 84 24 84C25.6 84 27.2 83.08 27.8 81.24L48 20.28L34 23.68ZM29.12 30L32.16 32.32L35.84 31.4L28 55.2V29.16L29.12 30ZM15.84 32.36L18.88 30.04L20 29.16V55.2L12.12 31.44L15.84 32.36Z" fill="yellow"/>
</svg>
